<svg xmlns="http://www.w3.org/2000/svg" width="144.199" height="80" viewBox="0 0 144.199 80">
  <g id="Group_1" data-name="Group 1" transform="translate(-95.906 -66.496)">
    <path id="Path_1" data-name="Path 1" d="M135.936,108.384a10.121,10.121,0,0,1,2.647-1.778,7.5,7.5,0,0,1,3.092-.606,6.413,6.413,0,0,1,3.214.768,4.407,4.407,0,0,1,1.92,2.02A8.464,8.464,0,0,1,153.356,106a5.5,5.5,0,0,1,4.324,1.718,6.388,6.388,0,0,1,1.537,4.426,9.629,9.629,0,0,1-.122,1.576l-2.263,12.894h-6.71l2.142-12.207a5.051,5.051,0,0,0,.081-.808,1.662,1.662,0,0,0-1.9-1.859,3.569,3.569,0,0,0-2.041.646,4.323,4.323,0,0,0-1.475,1.739l-2.182,12.489h-6.709l2.142-12.207a6.77,6.77,0,0,0,.081-.768,1.679,1.679,0,0,0-1.9-1.9,3.446,3.446,0,0,0-2.041.646,4.152,4.152,0,0,0-1.395,1.739l-2.183,12.489h-6.709L129.59,106.4H136.3Z" transform="translate(-7.584 -9.961)"/>
    <path id="Path_2" data-name="Path 2" d="M182.486,105.421a7.391,7.391,0,0,1,2.567-1.6,9.15,9.15,0,0,1,3.374-.626,8.879,8.879,0,0,1,4.386,1.112,8.435,8.435,0,0,1,3.213,3.172,9.228,9.228,0,0,1,1.213,4.769,13.1,13.1,0,0,1-1.415,6.124,10.49,10.49,0,0,1-4.042,4.284,11.746,11.746,0,0,1-6.1,1.557,7.336,7.336,0,0,1-5.981-2.587l-.4,2.183h-6.709l5.174-29.506h6.709Zm-1.536,8.771a8.541,8.541,0,0,0-.081.97,3.289,3.289,0,0,0,1.152,2.689,4.393,4.393,0,0,0,2.89.95,5.019,5.019,0,0,0,3.84-1.658,6.224,6.224,0,0,0,1.536-4.405,3.859,3.859,0,0,0-4.083-4.123,4.929,4.929,0,0,0-3.274,1.192,5.557,5.557,0,0,0-1.819,3.375Z" transform="translate(-19.237 -7.076)"/>
    <path id="Path_3" data-name="Path 3" d="M229.262,126.613h-6.71l.364-2.062a7.31,7.31,0,0,1-2.506,1.82,7.783,7.783,0,0,1-3.193.646,9.668,9.668,0,0,1-4.446-1.092,8.932,8.932,0,0,1-3.476-3.132,8.482,8.482,0,0,1-1.334-4.749,12.983,12.983,0,0,1,1.455-6.2,10.62,10.62,0,0,1,4.163-4.284A12.517,12.517,0,0,1,219.925,106a8.244,8.244,0,0,1,5.9,2.1l.282-1.7h6.71Zm-13.217-6.184a4.2,4.2,0,0,0,3.112,1.172,5.086,5.086,0,0,0,3.375-1.132,5.421,5.421,0,0,0,1.718-3.476l.162-1.01a8.8,8.8,0,0,0,.081-.89,3.422,3.422,0,0,0-1.091-2.728,4.47,4.47,0,0,0-3.032-.95,5.143,5.143,0,0,0-3.94,1.677,5.913,5.913,0,0,0-1.556,4.183,4.256,4.256,0,0,0,1.172,3.153" transform="translate(-28.114 -9.965)"/>
    <path id="Path_4" data-name="Path 4" d="M249,123.812h-6.709l5.174-29.505h6.709Z" transform="translate(-36.566 -7.073)"/>
    <path id="Path_5" data-name="Path 5" d="M275.728,107.131a8.641,8.641,0,0,1,3.658,3.234,9.038,9.038,0,0,1,1.314,4.89,11.357,11.357,0,0,1-6.124,10.247,13.263,13.263,0,0,1-6.325,1.516,12.27,12.27,0,0,1-5.436-1.152,8.735,8.735,0,0,1-3.678-3.254,8.882,8.882,0,0,1-1.314-4.81,11.49,11.49,0,0,1,1.617-6.042,11.361,11.361,0,0,1,4.506-4.224A13.694,13.694,0,0,1,270.473,106a11.943,11.943,0,0,1,5.254,1.131m-2.931,5.7a3.946,3.946,0,0,0-2.89-1.092,4.9,4.9,0,0,0-3.82,1.638,5.675,5.675,0,0,0-1.475,3.94,3.755,3.755,0,0,0,1.152,2.89,4.132,4.132,0,0,0,2.931,1.07,5.018,5.018,0,0,0,2.607-.706,5.205,5.205,0,0,0,1.9-1.96,5.572,5.572,0,0,0,.707-2.789,4,4,0,0,0-1.112-2.99" transform="translate(-40.595 -9.965)"/>
    <path id="Path_6" data-name="Path 6" d="M114.762,108.284a9.713,9.713,0,0,0-6.77-2.284,12.281,12.281,0,0,0-6.224,1.576,11.343,11.343,0,0,0-4.3,4.324,12.245,12.245,0,0,0-1.556,6.143,8.635,8.635,0,0,0,1.273,4.668,8.747,8.747,0,0,0,3.436,3.172,10.172,10.172,0,0,0,4.79,1.132,12.336,12.336,0,0,0,6.487-1.577,9.984,9.984,0,0,0,3.658-4.02c.068-.138.138-.275.2-.418l-.283-.687-5.4-.746a5.787,5.787,0,0,1-1.53,1.547,4.7,4.7,0,0,1-2.607.648,4.063,4.063,0,0,1-2.728-.91A3.752,3.752,0,0,1,102.05,118h14.874l.2-1.253a16.521,16.521,0,0,0,.161-2.142,8.1,8.1,0,0,0-2.526-6.325m-11.9,5.8a6.41,6.41,0,0,1,1.96-2.406,4.67,4.67,0,0,1,2.849-.909,3.612,3.612,0,0,1,2.668.929,3.23,3.23,0,0,1,.93,2.385Z" transform="translate(0 -9.965)"/>
    <path id="Path_7" data-name="Path 7" d="M206.42,166.336l-71.615.023,3.683-21.021,11.655-.009-1.465,8.361,48.32-.084,1.465-8.361,11.655-.01Z" transform="translate(-10.073 -19.863)" fill="#f79b1c"/>
    <path id="Path_8" data-name="Path 8" d="M152.284,66.6l71.63-.1-3.7,21.1-11.655.009,1.465-8.36-48.32.084-1.451,8.281L148.6,87.62Z" transform="translate(-13.646)" fill="#f79b1c"/>
  </g>
</svg>
